# xmcd
#
# Track frame offsets: 
#        150
#        13217
#        25307
#        36120
#        48015
#        57677
#        68535
#        78742
#        92302
#        103480
#        116542
#        124505
#        136117
#        148955
#        159585
#
# Disc length: 2288 seconds
#
# Revision: 4
# Processed by: cddbd v1.5.2PL0 Copyright (c) Steve Scherf et al.
# Submitted via: ExactAudioCopy v0.99pb3
#
DISCID=cc08ee0f
DTITLE=Various Artist - Country Classics Volume One
DYEAR=1900
DGENRE=
TTITLE0=Kenny Rogers - Ruby, Don`t Take Your Love To Town
TTITLE1=Willie Nelson - I Can`t Find The Time
TTITLE2=Stonewall Jackson - Things To Talk About
TTITLE3=Billy Jo Spears - Look What They`ve Done To My Song
TTITLE4=Ned Miller - From A Jack To A King
TTITLE5=George Jones - Tender Years
TTITLE6=Ferlin Husky - Wings Of A Dove
TTITLE7=Kenny Rogers - Shine On Ruby Mountain
TTITLE8=George Jones - I´m Wasting Good Paper
TTITLE9=B.J. Thomas - Raindrops
TTITLE10=Roger Miller - Dear Heart
TTITLE11=Roger Miller - Little Green Apples
TTITLE12=Johnny Paycheck - Talk About Me
TTITLE13=Billy Jo Spears - I´m So Lonesome I Could Cry
TTITLE14=Faron Young - Sweet Dreams
EXTD=
EXTT0=
EXTT1=
EXTT2=
EXTT3=
EXTT4=
EXTT5=
EXTT6=
EXTT7=
EXTT8=
EXTT9=
EXTT10=
EXTT11=
EXTT12=
EXTT13=
EXTT14=
PLAYORDER=
